#!OML:ASF E:\acrobat2\Project_11_07_03\Capture day 1\Session 1\Acrobat.ASF
:FULLY-SPECIFIED
:DEGREES
164
root 10.9541 18.0946 -36.6205 183.069 0.342453 -185.91
lowerback -6.81373 0.254826 -5.96692
upperback -3.1636 1.11451 -2.86197
thorax 0.505203 0.75322 0.473549
lowerneck 3.07477 -1.46707 -3.46351
upperneck -11.8319 -1.87216 7.96951
head -3.90805 -1.38961 3.1025
rclavicle 6.21202e-015 -1.59028e-015
rhumerus -39.3675 -3.67602 -85.4084
rradius 29.3947
rwrist -2.19146
rhand -7.47149 -41.6287
rfingers 7.12502
rthumb 18.4173 289.223
lclavicle 6.21202e-015 -1.59028e-015
lhumerus -32.4212 -7.24754 92.4965
lradius 23.5106
lwrist 8.17261
lhand -9.51126 -365.169
lfingers 7.12502
lthumb 16.4542 24.153
rfemur 6.20706 8.26403 15.8566
rtibia -0.121139
rfoot -191.736 -192.232
rtoes -27.83
lfemur 2.51769 2.72619 -25.634
ltibia 0.407693
lfoot 3.24496 -13.0482
ltoes 40.5365
165
root 10.9533 18.1005 -36.6339 183.037 0.321553 -186.679
lowerback -6.79547 0.133993 -6.69634
upperback -3.22298 1.03447 -3.09404
thorax 0.428987 0.737788 0.632425
lowerneck 2.74297 -1.50575 -3.29068
upperneck -11.3627 -1.93211 7.73047
head -3.71264 -1.39216 2.98906
rclavicle -8.54774e-015 2.90226e-014
rhumerus -39.2012 -2.56302 -86.4263
rradius 29.6507
rwrist -2.54988
rhand -7.59303 -41.4477
rfingers 7.12502
rthumb 18.3004 289.393
lclavicle -8.54774e-015 2.90226e-014
lhumerus -31.8894 -8.75316 94.0306
lradius 25.5986
lwrist 10.758
lhand -8.07951 -366.136
lfingers 7.12502
lthumb 17.8323 23.0664
rfemur 6.30431 7.5214 14.7429
rtibia -0.185904
rfoot -191.674 -191.552
rtoes -27.8828
lfemur 2.56597 2.66834 -26.6677
ltibia 0.485596
lfoot 3.00803 -13.0186
ltoes 39.8308
166
root 10.9647 18.0996 -36.6433 182.954 0.500856 -187.056
lowerback -6.67646 0.097503 -7.16104
upperback -3.27143 1.01999 -3.19668
thorax 0.306834 0.747082 0.780498
lowerneck 2.33361 -1.55418 -3.0968
upperneck -10.5857 -2.04759 7.25686
head -3.78633 -1.38999 3.09588
rclavicle 1.68967e-015 -1.59028e-015
rhumerus -39.1519 -1.63968 -87.3126
rradius 30.1168
rwrist -2.47862
rhand -7.50057 -41.541
rfingers 7.12502
rthumb 18.3893 289.308
lclavicle 1.68967e-015 -1.59028e-015
lhumerus -31.5184 -10.4667 95.5578
lradius 27.9134
lwrist 12.3225
lhand -6.95509 -366.232
lfingers 7.12502
lthumb 18.914 22.8686
rfemur 6.40555 7.70633 14.3358
rtibia -0.225099
rfoot -191.703 -191.606
rtoes -27.2901
lfemur 2.62968 2.48132 -27.0968
ltibia 0.595842
lfoot 2.56491 -12.6718
ltoes 39.1793
167
root 10.9697 18.1027 -36.6576 183.003 0.44252 -186.608
lowerback -6.70076 0.0620359 -6.67003
upperback -3.3309 0.93066 -3.11815
thorax 0.271812 0.695485 0.583272
lowerneck 1.90851 -1.62263 -3.10229
upperneck -10.2038 -2.14197 7.28147
head -3.56341 -1.42354 3.0848
rclavicle 4.27387e-015 -3.02153e-014
rhumerus -39.0814 -0.866924 -88.0898
rradius 30.5103
rwrist -2.20381
rhand -7.39867 -41.6496
rfingers 7.12502
rthumb 18.4874 289.209
lclavicle 4.27387e-015 -3.02153e-014
lhumerus -31.3052 -12.2068 96.8979
lradius 30.2507
lwrist 13.1743
lhand -5.75822 -366.969
lfingers 7.12502
lthumb 20.0648 22.0154
rfemur 6.40837 7.32763 14.8471
rtibia -0.225033
rfoot -191.558 -191.333
rtoes -27.9293
lfemur 2.62006 2.24538 -26.6032
ltibia 0.637419
lfoot 2.48461 -12.2899
ltoes 38.9688
168
root 10.9761 18.1025 -36.6662 182.96 0.430957 -186.543
lowerback -6.43843 0.0450257 -6.55068
upperback -3.4612 0.878587 -3.18024
thorax -0.00255948 0.681104 0.44451
lowerneck 1.77505 -1.74275 -3.06386
upperneck -10.0922 -2.30431 7.30897
head -3.48868 -1.50345 3.08473
rclavicle -1.83876e-015 -7.95139e-016
rhumerus -39.1377 -0.286512 -88.8016
rradius 30.8434
rwrist -1.96592
rhand -7.05583 -41.848
rfingers 7.12502
rthumb 18.8171 289.042
lclavicle -1.83876e-015 -7.95139e-016
lhumerus -31.3618 -13.8571 97.9629
lradius 32.7497
lwrist 13.6063
lhand -4.77143 -371.42
lfingers 7.12502
lthumb 21.013 17.4615
rfemur 6.45013 7.02989 14.9062
rtibia -0.16081
rfoot -191.467 -191.058
rtoes -29.0905
lfemur 2.71978 2.02965 -26.5541
ltibia 0.566462
lfoot 2.18753 -11.8328
ltoes 37.4981
169
root 10.9863 18.102 -36.6802 182.916 0.51534 -186.568
lowerback -6.40259 0.0441589 -6.54439
upperback -3.47253 0.879926 -3.25442
thorax -0.0327363 0.684712 0.363899
lowerneck 1.76063 -1.82964 -3.37546
upperneck -10.2464 -2.42281 7.61609
head -3.52988 -1.57142 3.25901
rclavicle 1.07841e-014 -4.37326e-014
rhumerus -39.0868 0.268385 -89.4477
rradius 31.1253
rwrist -1.79416
rhand -6.84956 -41.7617
rfingers 7.12502
rthumb 19.0155 289.148
lclavicle 1.07841e-014 -4.37326e-014
lhumerus -31.3553 -15.3105 98.7565
lradius 35.3036
lwrist 13.4958
lhand -3.5741 -373.98
lfingers 7.12502
lthumb 22.1629 14.7698
rfemur 6.46861 6.65847 14.8302
rtibia -0.054854
rfoot -191.601 -190.631
rtoes -29.5341
lfemur 2.85678 2.00918 -26.5682
ltibia 0.481946
lfoot 1.99109 -11.8541
ltoes 37.0589
170
root 11.0015 18.1006 -36.6988 182.844 0.703761 -186.48
lowerback -6.26178 0.0482816 -6.53041
upperback -3.58591 0.868171 -3.22802
thorax -0.228057 0.687409 0.379309
lowerneck 1.70421 -1.8117 -4.2513
upperneck -10.0855 -2.38673 8.39117
head -3.4592 -1.54894 3.69204
rclavicle 8.54774e-015 1.86858e-014
rhumerus -39.2852 1.33338 -90.1788
rradius 31.3895
rwrist -2.00214
rhand -6.82642 -41.3858
rfingers 7.12502
rthumb 19.0378 289.526
lclavicle 8.54774e-015 1.86858e-014
lhumerus -31.768 -16.5395 99.4525
lradius 38.2233
lwrist 13.2452
lhand -2.07503 -375.169
lfingers 7.12502
lthumb 23.6014 13.403
rfemur 6.56762 6.46826 14.9398
rtibia -0.0515755
rfoot -191.632 -190.299
rtoes -29.6114
lfemur 3.02641 1.99417 -26.4137
ltibia 0.4422
lfoot 1.71842 -11.8731
ltoes 36.8553
171
root 11.0171 18.0983 -36.7183 182.726 0.960673 -186.408
lowerback -6.21735 0.0929083 -6.46072
upperback -3.57009 0.919326 -3.26826
thorax -0.237181 0.710806 0.301684
lowerneck 1.48483 -1.82309 -4.68981
upperneck -10.2896 -2.35031 9.12505
head -3.11422 -1.57037 3.62433
rclavicle 8.94531e-016 -2.22639e-014
rhumerus -39.36 2.48448 -91.0005
rradius 31.7012
rwrist -2.43053
rhand -6.78927 -40.9893
rfingers 7.12502
rthumb 19.0735 289.926
lclavicle 8.94531e-016 -2.22639e-014
lhumerus -32.2342 -17.8835 99.8951
lradius 41.4419
lwrist 13.2172
lhand -0.706969 -375.44
lfingers 7.12502
lthumb 24.913 12.9558
rfemur 6.78256 6.50016 15.0884
rtibia -0.172174
rfoot -191.518 -190.079
rtoes -29.5718
lfemur 3.23218 2.08239 -26.2568
ltibia 0.443801
lfoot 1.55167 -11.8466
ltoes 37.1344
172
root 11.0368 18.0967 -36.7254 182.723 1.33739 -186.22
lowerback -6.21459 0.122238 -6.40372
upperback -3.53424 0.94561 -3.21244
thorax -0.203229 0.717348 0.329684
lowerneck 1.31688 -1.74284 -4.78723
upperneck -10.4845 -2.24956 9.16654
head -3.14961 -1.52714 3.65245
rclavicle 1.21756e-014 -3.02153e-014
rhumerus -39.3873 3.25753 -91.5569
rradius 32.2101
rwrist -2.48208
rhand -6.65823 -40.8655
rfingers 7.12502
rthumb 19.1995 290.062
lclavicle 1.21756e-014 -3.02153e-014
lhumerus -32.5989 -19.0475 100.116
lradius 44.4384
lwrist 13.2755
lhand -0.121965 -376.029
lfingers 7.12502
lthumb 25.4735 12.289
rfemur 6.76774 7.04682 15.4753
rtibia -0.205924
rfoot -191.435 -190.245
rtoes -29.4237
lfemur 3.23082 2.1275 -25.9131
ltibia 0.492676
lfoot 1.42546 -11.546
ltoes 37.6356
173
root 11.0565 18.0961 -36.7282 182.81 1.74723 -185.902
lowerback -6.27862 0.155311 -6.21678
upperback -3.51833 0.97074 -3.10412
thorax -0.151307 0.720368 0.340383
lowerneck 1.26449 -1.56304 -4.97196
upperneck -10.7371 -2.01118 9.27278
head -3.22961 -1.41821 3.71456
rclavicle -6.4605e-016 -5.96354e-015
rhumerus -39.4496 3.77829 -91.9103
rradius 32.7706
rwrist -2.40047
rhand -6.20481 -41.1914
rfingers 7.12502
rthumb 19.6355 289.78
lclavicle -6.4605e-016 -5.96354e-015
lhumerus -32.9641 -20.139 100.217
lradius 47.125
lwrist 13.4691
lhand -0.486281 -377.316
lfingers 7.12502
lthumb 25.1245 11.0508
rfemur 6.56089 7.56813 15.9949
rtibia -0.095294
rfoot -191.356 -190.386
rtoes -29.7329
lfemur 3.1387 1.95807 -25.4549
ltibia 0.498519
lfoot 1.03849 -11.0889
ltoes 37.4131
174
root 11.0617 18.0945 -36.7549 182.718 1.91946 -186.132
lowerback -6.46748 0.130855 -6.35884
upperback -3.39205 0.974631 -3.20704
thorax 0.0835971 0.716868 0.317699
lowerneck 1.34921 -1.4984 -4.93042
upperneck -11.0976 -1.9392 9.08269
head -3.36034 -1.39023 3.65553
rclavicle 7.65321e-015 -1.19271e-015
rhumerus -39.5804 4.32919 -92.2324
rradius 33.2729
rwrist -2.69319
rhand -5.83587 -41.4924
rfingers 7.12502
rthumb 19.9901 289.516
lclavicle 7.65321e-015 -1.19271e-015
lhumerus -33.3567 -21.2656 100.258
lradius 49.4927
lwrist 13.9673
lhand -1.30462 -378.453
lfingers 7.12502
lthumb 24.3402 10.0218
rfemur 6.72051 6.72544 15.5499
rtibia -0.119326
rfoot -191.205 -189.41
rtoes -30.5089
lfemur 3.40705 1.96781 -25.8223
ltibia 0.372656
lfoot 0.770463 -11.1185
ltoes 36.7462
175
root 11.0809 18.0937 -36.7548 182.74 2.27754 -186.174
lowerback -6.41436 0.201389 -6.49332
upperback -3.39276 1.07401 -3.24073
thorax 0.0461211 0.769815 0.362777
lowerneck 1.46339 -1.59465 -4.55871
upperneck -11.519 -2.10487 8.47586
head -3.50835 -1.47379 3.42106
rclavicle 1.00883e-014 -4.09496e-014
rhumerus -39.7943 4.6373 -92.4388
rradius 33.7227
rwrist -3.04709
rhand -5.82644 -41.3246
rfingers 7.12502
rthumb 19.9992 289.685
lclavicle 1.00883e-014 -4.09496e-014
lhumerus -33.7702 -22.365 100.208
lradius 51.4911
lwrist 14.6291
lhand -2.1487 -379.248
lfingers 7.12502
lthumb 23.5308 9.33234
rfemur 6.54857 7.01527 15.577
rtibia 0.0231052
rfoot -191.12 -189.379
rtoes -30.7332
lfemur 3.35344 1.84449 -25.8041
ltibia 0.401857
lfoot 0.299995 -10.8542
ltoes 35.9826
176
root 11.0885 18.094 -36.765 182.733 2.40599 -186.098
lowerback -6.36643 0.23231 -6.34034
upperback -3.41265 1.10198 -3.28065
thorax 0.00148622 0.783252 0.23741
lowerneck 1.47075 -1.70733 -4.39789
upperneck -11.6285 -2.27734 8.15658
head -3.53852 -1.55316 3.30318
rclavicle 6.01324e-015 -9.93923e-015
rhumerus -40.0899 4.59023 -92.4639
rradius 33.9746
rwrist -3.1261
rhand -5.85516 -41.0364
rfingers 7.12502
rthumb 19.9716 289.97
lclavicle 6.01324e-015 -9.93923e-015
lhumerus -34.3292 -23.2269 100.086
lradius 53.1454
lwrist 15.1169
lhand -3.1188 -380.016
lfingers 7.12502
lthumb 22.5999 8.68079
rfemur 6.52159 6.47216 15.5728
rtibia 0.11037
rfoot -191.106 -188.738
rtoes -31.0937
lfemur 3.45627 1.74148 -25.7522
ltibia 0.338403
lfoot 0.0608678 -10.7439
ltoes 36.011
177
root 11.1063 18.0978 -36.762 182.86 2.59642 -186.304
lowerback -6.29731 0.220654 -6.64778
upperback -3.53262 1.1082 -3.32734
thorax -0.166769 0.80407 0.356948
lowerneck 1.48639 -2.45398 -4.6349
upperneck -11.4549 -2.13971 8.43896
head -3.47839 -1.00947 3.39222
rclavicle 1.44119e-015 1.51076e-014
rhumerus -40.4004 4.36021 -92.3156
rradius 34.0586
rwrist -2.93634
rhand -5.9585 -40.9001
rfingers 7.12502
rthumb 19.8722 290.096
lclavicle 1.44119e-015 1.51076e-014
lhumerus -34.8299 -23.7698 99.8783
lradius 54.3197
lwrist 15.5936
lhand -4.15513 -380.657
lfingers 7.12502
lthumb 21.605 8.1575
rfemur 6.23751 6.6759 15.3817
rtibia 0.266445
rfoot -191.259 -188.762
rtoes -30.3438
lfemur 3.23049 1.47362 -25.9629
ltibia 0.446452
lfoot -0.312519 -10.5538
ltoes 36.1004
178
root 11.118 18.0949 -36.7697 182.735 2.67486 -186.497
lowerback -6.16181 0.188433 -6.89879
upperback -3.50174 1.06985 -3.36107
thorax -0.212639 0.789671 0.45716
lowerneck 1.61876 -2.48145 -4.6666
upperneck -11.6236 -2.17309 8.40783
head -3.54883 -1.02625 3.39323
rclavicle -7.45443e-015 6.71892e-014
rhumerus -40.6062 4.39216 -92.1767
rradius 33.9631
rwrist -2.93353
rhand -6.00596 -40.9002
rfingers 7.12502
rthumb 19.8266 290.091
lclavicle -7.45443e-015 6.71892e-014
lhumerus -35.1154 -24.0886 99.5247
lradius 55.0266
lwrist 16.2209
lhand -4.85224 -381.095
lfingers 7.12502
lthumb 20.9354 7.79561
rfemur 6.37165 6.46279 15.1499
rtibia 0.279579
rfoot -191.47 -188.455
rtoes -29.4031
lfemur 3.38483 1.43763 -26.1762
ltibia 0.459671
lfoot -0.396813 -10.5644
ltoes 36.4234
